<svg width="758" height="758" viewBox="0 0 758 758" fill="none" xmlns="http://www.w3.org/2000/svg">
<circle cx="379" cy="379" r="379" fill="#22C55F"/>
<path d="M569.622 251.669L398.149 157.808C392.419 154.654 385.984 153 379.443 153C372.902 153 366.468 154.654 360.737 157.808L189.265 251.669C183.129 255.026 178.01 259.973 174.445 265.99C170.879 272.007 168.998 278.872 169 285.866V472.186C168.998 479.181 170.879 486.046 174.445 492.063C178.01 498.08 183.129 503.026 189.265 506.384L360.737 600.245C366.466 603.402 372.902 605.058 379.443 605.058C385.985 605.058 392.42 603.402 398.149 600.245L569.622 506.384C575.757 503.026 580.876 498.08 584.442 492.063C588.008 486.046 589.888 479.181 589.887 472.186V285.866C589.888 278.872 588.008 272.007 584.442 265.99C580.876 259.973 575.757 255.026 569.622 251.669ZM379.443 200.871L519.739 277.702L477.981 300.558L337.686 223.747L379.443 200.871ZM379.443 354.475L239.148 277.702L288.953 250.422L429.248 327.214L379.443 354.475ZM215.765 318.212L356.061 394.985V544.38L215.765 467.568V318.212ZM402.826 544.38V394.985L449.591 369.401V425.792C449.591 431.993 452.055 437.94 456.44 442.326C460.825 446.711 466.772 449.174 472.974 449.174C479.175 449.174 485.122 446.711 489.508 442.326C493.893 437.94 496.356 431.993 496.356 425.792V343.797L543.121 318.212V467.568L402.826 544.38Z" fill="white"/>
</svg>
